<svg width="24" height="24" viewBox="0 0 24 24" fill="none" xmlns="http://www.w3.org/2000/svg">
<g clip-path="url(#clip0_1_19)">
<path d="M22.9566 15.8838C22.434 15.2566 21.8402 14.6944 21.2659 14.1507C21.0617 13.9574 20.8506 13.7575 20.6471 13.5587C20.0628 12.9874 20.0415 12.7728 20.5041 12.1238C20.8242 11.6765 21.1635 11.2286 21.4917 10.7955C21.7894 10.4025 22.0973 9.99608 22.3923 9.58835L22.4529 9.50452C23.0168 8.72427 23.5999 7.91747 23.9103 6.9442C23.9909 6.68742 24.0755 6.30955 23.882 5.99358C23.6887 5.67787 23.3136 5.58156 23.0482 5.53657C22.9169 5.51431 22.7866 5.51127 22.6656 5.51127L18.9728 5.50863L18.9422 5.50836C18.3839 5.50836 18.0076 5.77148 17.792 6.31285C17.5861 6.83011 17.36 7.38092 17.102 7.90466C16.5885 8.94756 15.9363 10.1487 14.9927 11.1506L14.9528 11.1932C14.8413 11.3129 14.7151 11.4486 14.6228 11.4486C14.6086 11.4486 14.5933 11.4459 14.5758 11.4404C14.3803 11.3642 14.2491 10.891 14.2551 10.6709C14.2552 10.6679 14.2552 10.6648 14.2552 10.6618L14.2526 6.39358C14.2526 6.37878 14.2516 6.36411 14.2497 6.34945C14.1557 5.65561 13.9476 5.2237 13.1614 5.06972C13.1405 5.06555 13.1192 5.06351 13.0979 5.06351H9.25804C8.63245 5.06351 8.28774 5.31778 7.96371 5.69835C7.87625 5.80009 7.69419 6.01188 7.78442 6.26879C7.87598 6.52953 8.17319 6.58529 8.26997 6.60339C8.75037 6.69482 9.02115 6.98865 9.09785 7.50208C9.23175 8.39364 9.2482 9.34525 9.14964 10.4969C9.12216 10.817 9.06779 11.0642 8.97821 11.2753C8.9574 11.3246 8.88361 11.4855 8.80837 11.4856C8.78445 11.4856 8.71529 11.4762 8.58931 11.3894C8.29144 11.1853 8.07351 10.8941 7.81944 10.5344C6.9551 9.31288 6.22968 7.96722 5.60144 6.41961C5.36844 5.8499 4.9333 5.53095 4.37561 5.52157C3.76283 5.51226 3.20726 5.50777 2.67739 5.50777C2.09843 5.50777 1.56168 5.51312 1.03756 5.52402C0.58887 5.53195 0.278515 5.66645 0.115213 5.92408C-0.0483542 6.18192 -0.0377184 6.52061 0.146856 6.93059C1.62437 10.2153 2.96402 12.6036 4.49069 14.6748C5.56042 16.124 6.63338 17.1272 7.867 17.8314C9.16668 18.5749 10.6232 18.9364 12.3196 18.9364C12.5119 18.9364 12.7108 18.9317 12.9113 18.9224C13.897 18.8743 14.2628 18.5175 14.309 17.5577C14.331 17.0672 14.3846 16.5528 14.6258 16.1141C14.778 15.8377 14.9199 15.8377 14.9665 15.8377C15.0563 15.8377 15.1677 15.8791 15.2874 15.9566C15.5019 16.0966 15.6859 16.2842 15.8367 16.4481C15.9787 16.6038 16.1191 16.7611 16.2596 16.9185C16.5628 17.2581 16.8763 17.6092 17.2039 17.9422C17.9207 18.6716 18.7105 18.9924 19.6176 18.9228H23.0033C23.0105 18.9228 23.0178 18.9225 23.025 18.922C23.3624 18.8998 23.6546 18.7126 23.8267 18.4086C24.0398 18.032 24.0355 17.5515 23.8152 17.1231C23.5651 16.6386 23.2408 16.2246 22.9566 15.8838Z" fill="#758CA3"/>
</g>
<defs>
<clipPath id="clip0_1_19">
<rect width="24" height="24" fill="white"/>
</clipPath>
</defs>
</svg>
