<svg width="25" height="25" viewBox="0 0 25 25" fill="none" xmlns="http://www.w3.org/2000/svg">
<path fill-rule="evenodd" clip-rule="evenodd" d="M24.4368 6.38685C24.1503 5.30794 23.306 4.45821 22.2341 4.16984C20.2911 3.64584 12.5 3.64584 12.5 3.64584C12.5 3.64584 4.70895 3.64584 2.76593 4.16984C1.69399 4.45825 0.849734 5.30794 0.563193 6.38685C0.042572 8.34247 0.042572 12.4227 0.042572 12.4227C0.042572 12.4227 0.042572 16.5028 0.563193 18.4584C0.849734 19.5374 1.69399 20.3517 2.76593 20.6401C4.70895 21.1641 12.5 21.1641 12.5 21.1641C12.5 21.1641 20.291 21.1641 22.2341 20.6401C23.306 20.3517 24.1503 19.5374 24.4368 18.4584C24.9574 16.5028 24.9574 12.4227 24.9574 12.4227C24.9574 12.4227 24.9574 8.34247 24.4368 6.38685ZM9.95188 16.1272V8.71816L16.4637 12.4227L9.95188 16.1272Z" fill="#758CA3"/>
</svg>
